Coordinates
version=1
nRows=12
nColumns=24
inDegrees=yes

Units are S.I. units (second, meters, Newtons, ...)
Angles are in degrees.

endheader
time	pelvis_tilt	pelvis_list	pelvis_rotation	pelvis_tx	pelvis_ty	pelvis_tz	hip_flexion_r	hip_adduction_r	hip_rotation_r	knee_angle_r	ankle_angle_r	subtalar_angle_r	mtp_angle_r	hip_flexion_l	hip_adduction_l	hip_rotation_l	knee_angle_l	ankle_angle_l	subtalar_angle_l	mtp_angle_l	lumbar_extension	lumbar_bending	lumbar_rotation
      0.83733333	      3.58538682	     -3.30657933	      0.52971347	     -0.18461790	      1.06121970	      0.29961431	    -17.74830685	      6.36960764	      1.64924602	     -7.08276488	     15.21061106	     -5.08687190	      2.88266415	     20.13445001	     -4.21003325	     -0.02963461	     -4.32064692	      4.36548365	      7.85691065	      6.22167256	    -19.11429331	      6.50277733	      2.41707033
      0.84150000	      3.61370130	     -3.26778513	      0.50071611	     -0.17883795	      1.06039802	      0.29930962	    -17.94204422	      6.30430017	      1.69795212	     -7.45813367	     15.32778197	     -5.12043741	      2.88470378	     20.20928106	     -4.08197739	      0.16037493	     -4.84939951	      4.25098610	      7.80795673	      6.22994488	    -19.10925818	      6.38638720	      2.40571500
      0.84566667	      3.61745484	     -3.22077240	      0.46905876	     -0.17302199	      1.05957158	      0.29896954	    -18.05963870	      6.21988600	      1.59293296	     -7.94552346	     15.59521671	     -4.84606345	      2.90092228	     20.29033166	     -3.93820397	      0.46387759	     -5.39453271	      4.09754982	      7.57229792	      6.28593291	    -19.04093089	      6.24946912	      2.37072018
      0.84983333	      3.62560100	     -3.16820785	      0.43551884	     -0.16717602	      1.05880369	      0.29864421	    -18.19105024	      6.13263109	      1.55308616	     -8.41117540	     15.74184147	     -4.72469054	      2.92508852	     20.38235202	     -3.79395786	      0.70446003	     -6.02264897	      3.89760427	      7.38433899	      6.34644404	    -18.98518434	      6.11140370	      2.34640742
      0.85400000	      3.64354771	     -3.11070546	      0.39776163	     -0.16130845	      1.05811300	      0.29830864	    -18.31891169	      6.03561911	      1.49848019	     -8.90488817	     15.85985785	     -4.57862115	      2.96998376	     20.46568275	     -3.64612756	      0.93331243	     -6.70204546	      3.66603157	      7.16637920	      6.42341385	    -18.93535618	      5.97390281	      2.32830993
      0.85816667	      3.64163559	     -3.04897592	      0.35215199	     -0.15541012	      1.05744290	      0.29798114	    -18.41301706	      5.93157345	      1.46593572	     -9.42694075	     15.95786842	     -4.45646539	      3.02541980	     20.57145528	     -3.49738194	      1.16250509	     -7.42512825	      3.43199377	      6.96421739	      6.49060021	    -18.86312233	      5.80905716	      2.31230817
      0.86233333	      3.62998232	     -2.98910429	      0.31007044	     -0.14947079	      1.05680489	      0.29762949	    -18.48550962	      5.82718895	      1.41168015	     -9.97136179	     16.01109298	     -4.30730826	      3.10700428	     20.69526300	     -3.35028542	      1.38095569	     -8.19869236	      3.16378891	      6.71883150	      6.56512926	    -18.76738993	      5.66406012	      2.29823142
      0.86650000	      3.61544696	     -2.92855788	      0.26073782	     -0.14352329	      1.05622732	      0.29728921	    -18.53425308	      5.71833613	      1.36473849	    -10.55787761	     16.04114503	     -4.16898282	      3.20030819	     20.82115588	     -3.20759291	      1.60289994	     -9.00089580	      2.90311023	      6.48044333	      6.62822275	    -18.68200918	      5.49921225	      2.28854938
      0.87066667	      3.58996744	     -2.87568351	      0.21310187	     -0.13754396	      1.05567752	      0.29691258	    -18.55581619	      5.61308742	      1.30119607	    -11.17444200	     16.02702514	     -4.00951734	      3.31434396	     20.96431597	     -3.07267155	      1.81460534	     -9.83868520	      2.63395498	      6.22434202	      6.68513098	    -18.56993707	      5.35175991	      2.28091802
      0.87483333	      3.58528124	     -2.80745386	      0.15997442	     -0.13153860	      1.05523669	      0.29653152	    -18.58584146	      5.48466062	      1.21796206	    -11.81701385	     15.99085253	     -3.79383198	      3.49933075	     21.07638963	     -2.92605440	      2.00816238	    -10.68518159	      2.34203925	      5.92016151	      6.75204035	    -18.47287829	      5.19147463	      2.27360566
      0.87900000	      3.55494893	     -2.75493522	      0.10091584	     -0.12552208	      1.05480638	      0.29614231	    -18.55913944	      5.36832419	      1.14211188	    -12.51728111	     15.89250836	     -3.62747842	      3.66088850	     21.22005964	     -2.80066182	      2.19403521	    -11.55730137	      2.10259706	      5.67152656	      6.79223090	    -18.35976163	      5.03141779	      2.27305319
      0.88316667	      3.55651066	     -2.69744421	      0.04540777	     -0.11949939	      1.05449795	      0.29571749	    -18.55575996	      5.24017571	      1.04961436	    -13.22491113	     15.69494962	     -3.47044229	      6.40675664	     21.30983780	     -2.66620312	      2.41523564	    -12.40207696	      1.81187842	      5.26833712	      7.26982279	    -18.28197285	      4.88990381	      2.23670192
